<svg width="65" height="40" viewBox="0 0 65 40" fill="none" xmlns="http://www.w3.org/2000/svg">
<path fill-rule="evenodd" clip-rule="evenodd" d="M65 19.9542C65 9.61099 58.4097 -5.3614e-07 46.3125 0C38.8194 3.32086e-07 32.5 3.66133 29.4306 10.4348C29.2574 10.8165 29.0986 11.1975 28.9532 11.5757L37.5537 20.2176C37.5556 20.0961 37.5556 20.0073 37.5556 19.9542C37.7361 15.6522 40.9861 10.6178 46.3125 10.6178C51.2778 10.6178 54.4375 15.0114 54.4375 19.9542C54.4375 24.714 51.8194 29.1076 46.5833 29.2906L55.22 37.9562C61.4778 34.7097 64.8051 27.9245 65 19.9542ZM27.3538 20.0531L35.8754 28.6157C35.7525 28.9302 35.6207 29.2471 35.4792 29.5652C32.4097 36.2471 26.8125 40 19.3194 40C7.3125 40 4.45917e-07 30.2975 0 19.9542C-3.38222e-07 12.109 3.71429 5.54975 9.69904 2.32587L18.1458 10.8009C12.9097 10.984 10.5625 15.103 10.5625 19.9542C10.5625 24.9886 13.4514 29.2906 19.3194 29.2906C24.5193 29.2906 27.3153 24.7771 27.3538 20.0531Z" fill="black"/>
</svg>
